<svg xmlns="http://www.w3.org/2000/svg" width="500" viewBox="0 0 375 375" height="500"><defs><clipPath id="a"><path d="M74.8 165.492h119.696v43.598H74.801Zm0 0"/></clipPath><clipPath id="b"><path d="M199 150h66v63h-66Zm0 0"/></clipPath><clipPath id="c"><path d="m212.11 146.191 55.175 48.564-23.292 26.46-55.172-48.562Zm0 0"/></clipPath><clipPath id="d"><path d="M267.371 194.831 212.2 146.269l-23.289 26.46 55.172 48.56Zm0 0"/></clipPath><clipPath id="e"><path d="M267.371 194.831 212.2 146.269l-23.289 26.46 55.172 48.56Zm0 0"/></clipPath></defs><g clip-path="url(#a)"><path fill="#1c2120" d="M74.8 165.492h119.56v43.59H74.8Zm0 0"/></g><g clip-path="url(#b)"><g clip-path="url(#c)"><g clip-path="url(#d)"><g clip-path="url(#e)"><path d="M248.04 193.89c-1.145-1.008-2.56-1.751-4.156-2.34-1.352-.5-4.316-1.135-8.938-1.756a.304.304 0 0 0-.18.03c-.011.004-.024.004-.03-.004v.004c-.825-.098-1.598-.026-2.2.211-.884.348-1.415 1.094-1.02 2.112.145.369.462.744.801 1.125l.02.02 2.935 2.825.002.008h.004c1.774 2.121 2.774 3.3 2.97 3.484.002.004.008.008.008.016a.222.222 0 0 0 .039.024l.008.008c.331.371.675.715 1.026 1.025 1.774 1.562 3.798 2.311 6.04 1.989 2.092-.3 3.611-1.474 4.465-3.2.776-1.565.379-3.218-.989-4.774a8.692 8.692 0 0 0-.805-.804Zm-38.23-18.526Zm0 0-.004.004Zm6.175-7.616a9.861 9.861 0 0 0-.73-.59c-1.579-1.16-3.189-1.71-4.726-1.261-1.66.484-2.625 1.87-3.105 3.751-.511 1.996.152 3.774 1.93 5.34.145.125.296.254.454.374l.004.004-.004-.004-.004.008h.004l-.011.02h.004l.011-.02-.011.02.016-.02h-.004l.004-.004h-.004c.004.004.008.004.008.008h.004c.016.011.02.016.025.02.004 0 .008.008.024.02.008.002.008.008.011.008l.004.004s.004.004.008.004a364.149 364.149 0 0 0 .016.016h.002l.004.002h.004c.235.189.484.38.762.544v.004h.004c1.835 1.09 3.015 1.845 3.582 2.242.406.285 1.64 1.215 3.702 2.835a6.29 6.29 0 0 0 1.051.665c1.098.564 1.998.156 2.461-.751a3.038 3.038 0 0 0 .258-.715.28.28 0 0 0 .004-.115h.004a.025.025 0 0 1-.004-.026v-.004a.306.306 0 0 0 .028-.121c.011-1.636-.585-4.011-2.008-7-1.106-2.325-2.41-4.055-3.779-5.258Zm45.079 21.629c2.415 2.125 3.369 4.148 2.965 5.996-.949 4.325-4.925 8.735-12.044 12.879-8.415 4.902-14.155 5.691-17.496 3.54-1.135-.735-2.152-1.47-3.026-2.24-1.215-1.065-2.16-2.206-2.79-3.519a.328.328 0 0 0-.07-.094c-.742-.675-1.71-4.625-3.335-12.092-.312-1.442-1.106-2.511-1.915-3.298-.064-.06-.125-.121-.192-.175-.825-.726-1.884-1.208-3.112-1.489l-.046-.008-9.781-.7-.008-.002c-1.989-.29-3.634-.855-4.992-1.598a11.811 11.811 0 0 1-2.13-1.48c-2.19-1.93-3.538-4.672-3.835-8.316-.525-6.346.855-12.565 4.074-18.472 2.831-5.202 6.555-7.951 10.855-7.989 1.316-.011 2.655.598 4.004 1.785 1.105.972 2.221 2.335 3.344 4.065.64.989 1.265 2.136 1.745 3.476 1.985 5.555 3.375 9.416 4.316 11.511 1.215 2.711 2.465 5.14 3.789 7.27l.004.011a.394.394 0 0 0 .051.062 28.682 28.682 0 0 0 1.625 1.565c1.239 1.085 2.625 2.04 4.22 2.474l.045.011 13.098 1.62c2.454.498 4.558 1.165 6.251 2.145 1.798 1.04 3.255 2.064 4.388 3.06Zm0 0" fill-opacity=".996"/></g></g></g></g><path d="M116.055 183.859h2.594c0-3.812-3.461-5.16-8.926-5.16-6.484 0-9.434 1.5-9.434 4.296v.204c0 3.434 2.774 3.89 8.875 4.526 6.635.61 6.66 1.524 6.66 1.93v.308c0 1.779-3.812 1.93-6.636 1.93-4.32 0-6.328-1.145-6.328-2.974h-2.595c0 3.408 2.951 5.517 8.921 5.517 6.384 0 9.309-1.195 9.309-4.551v-.255c0-3.456-3.41-3.94-9.18-4.475-6.331-.582-6.355-1.371-6.355-1.98v-.23c0-1.219 3.154-1.702 6.762-1.702 3.61 0 6.331.66 6.331 2.616Zm16.973 10.58c6.891 0 9.665-2.745 10.172-5.974h-2.825c-.558 1.98-2.645 3.43-7.348 3.43-5.515-.001-7.675-2.085-7.675-5.111v-.535c0-3.024 2.16-5.109 7.675-5.109 4.224 0 7.07 1.5 7.375 3.281h2.82c-.226-3.049-3.789-5.825-10.195-5.825-7.855 0-10.32 3.636-10.32 7.652v.535c.001 4.017 2.466 7.656 10.321 7.656Zm29.132-.255h2.974l-8.34-15.18.026-.074h-3.049l.051.074-8.363 15.18h2.974l1.5-2.719h10.73Zm-10.831-5.262 3.965-7.221 3.97 7.221Zm40.013-9.993h-3.689l-7.826 12.711-7.731-12.71h-3.687v15.254h2.593v-12.026l7.299 11.975-.052.051h3.128l-.026-.051 7.398-12.028v12.079h2.594Zm0 0" fill="#fff"/><path d="M165.192 222.908h2.549c0-3.755-3.402-5.082-8.781-5.082-6.38 0-9.282 1.475-9.282 4.23v.2c0 3.379 2.726 3.828 8.73 4.454 6.531.601 6.555 1.5 6.555 1.902v.3c0 1.751-3.751 1.902-6.528 1.902-4.255 0-6.23-1.129-6.23-2.93h-2.553c0 3.351 2.902 5.429 8.785 5.429 6.276 0 9.155-1.175 9.155-4.476v-.254c0-3.402-3.351-3.875-9.03-4.402-6.23-.574-6.26-1.352-6.26-1.949v-.226c0-1.202 3.106-1.675 6.656-1.675 3.555 0 6.23.648 6.23 2.579Zm23.467-2.58v-2.279h-15.813v15.014h15.811v-2.276h-13.258v-3.902h11.709v-2.277h-11.709v-4.276Zm7.155-2.276h-2.549v15.011h15.061v-2.402h-12.512Zm19.14 0h-2.549v15.011h15.061v-2.402h-12.512Zm32.426 2.276v-2.279h-15.813v15.014h15.811v-2.276H234.12v-3.902h11.709v-2.277H234.12v-4.276Zm22.392 2.101v-.276c0-2.7-1.751-4.102-4.68-4.102h-13.084v15.012h2.726v-5.805h9.309c2.526 0 2.526 1.551 2.526 2.726v1.675c0 .454.024.954.102 1.402h2.925a9.16 9.16 0 0 1-.125-1.5v-1.776c0-1.551-.625-2.902-2.079-3.702 1.426-.451 2.38-1.476 2.38-3.654Zm-15.038 2.154v-4.031h10.36c1.702 0 2.079.88 2.079 1.602v.276c0 1.175-.654 2.154-2.079 2.154Zm20.493 8.48c.901 0 1.401-.426 1.401-1.074v-.154c0-.726-.5-1.051-1.402-1.051s-1.375.325-1.375 1.051v.175c0 .625.474 1.051 1.375 1.051Zm0 0" fill="#1c2120"/></svg>